<?xml version="1.0" encoding="UTF-8"?>
<svg width="60px" height="60px" viewBox="0 0 60 60" version="1.1" xmlns="http://www.w3.org/2000/svg" xmlns:xlink="http://www.w3.org/1999/xlink">
    <title>pictograma2</title>
    <g id="-⭐️Master" stroke="none" strokeWidth="1" fill="none" fillRule="evenodd">
        <g id="1.0.1-LP-B2B-" transform="translate(-568.000000, -1039.000000)">
            <g id="section_1" transform="translate(56.000000, 795.000000)">
                <g id="info_2" transform="translate(472.000000, 204.000000)">
                    <g id="pictograma2" transform="translate(40.000000, 40.000000)">
                        <g id="pi05aa06ua_001">
                            <circle id="Oval" fill="#FFEDE0" cx="30" cy="30" r="30"></circle>
                            <circle id="Oval" fill="#FFD1B3" cx="30" cy="30" r="22.5"></circle>
                        </g>
                        <g id="pi05aa06ua_001">
                            <circle id="Oval" fill="#FFEDE0" cx="30" cy="30" r="30"></circle>
                            <circle id="Oval" fill="#FFD1B3" cx="30" cy="30" r="22.5"></circle>
                        </g>
                        <g id="Tópico-2---Dados-Copy" transform="translate(17.500000, 17.500000)" fillRule="nonzero">
                            <path d="M14.096941,0 L14.096941,3.89329443 C18.5064477,4.52624554 21.781463,8.31303993 21.7823101,12.7796386 C21.7806372,13.8985839 21.5631614,15.0066443 21.1418627,16.0427813 L24.4962061,18.0054833 C25.2394256,16.3668874 25.6243076,14.5877733 25.6249974,12.787666 C25.6291906,6.18843342 20.6452493,0.659922054 14.096941,0 M12.8160461,21.7703392 C8.10678849,21.7852107 4.19007722,18.1413917 3.85260627,13.4314163 C3.51513533,8.72144097 6.87214012,4.55361366 11.5351513,3.89329443 L11.5351513,0 C5.68181375,0.586939924 0.979627105,5.09617326 0.133849295,10.9334518 C-0.711928516,16.7707303 2.51615458,22.4352719 7.96092061,24.6681573 C13.4056866,26.9010426 19.6672696,25.1281902 23.1432609,20.3695559 L19.8129343,18.4068539 C18.1227736,20.5500431 15.5408462,21.7912055 12.8160461,21.7703392 Z" id="Shape" fill="#FF7E29"></path>
                            <path d="M14.096941,0 L14.096941,3.89329443 C18.5064477,4.52624554 21.781463,8.31303993 21.7823101,12.7796386 C21.7806372,13.8985839 21.5631614,15.0066443 21.1418627,16.0427813 L24.4962061,18.0054833 C25.2394256,16.3668874 25.6243076,14.5877733 25.6249974,12.787666 C25.6291906,6.18843342 20.6452493,0.659922054 14.096941,0 M12.8160461,21.7703392 C8.10678849,21.7852107 4.19007722,18.1413917 3.85260627,13.4314163 C3.51513533,8.72144097 6.87214012,4.55361366 11.5351513,3.89329443 L11.5351513,0 C5.68181375,0.586939924 0.979627105,5.09617326 0.133849295,10.9334518 C-0.711928516,16.7707303 2.51615458,22.4352719 7.96092061,24.6681573 C13.4056866,26.9010426 19.6672696,25.1281902 23.1432609,20.3695559 L19.8129343,18.4068539 C18.1227736,20.5500431 15.5408462,21.7912055 12.8160461,21.7703392 Z" id="Shape" fill="#CC5200"></path>
                        </g>
                    </g>
                </g>
            </g>
        </g>
    </g>
</svg>