<?xml version="1.0" encoding="utf-8"?>
<!-- Generator: Adobe Illustrator 27.9.0, SVG Export Plug-In . SVG Version: 6.00 Build 0)  -->
<svg version="1.1" id="Camada_1" xmlns="http://www.w3.org/2000/svg" xmlns:xlink="http://www.w3.org/1999/xlink" x="0px" y="0px"
	 viewBox="0 0 270 88" style="enable-background:new 0 0 270 88;" xml:space="preserve">
<style type="text/css">
	.st0{fill:#FFFFFF;}
</style>
<g>
	<path class="st0" d="M74.5,37.3c0-9.9-3.9-19.4-10.9-26.4C56.6,3.9,47.2,0,37.3,0c-9.9,0-19.4,3.9-26.4,10.9
		C3.9,17.9,0,27.4,0,37.3c0,10.5,4.2,18.9,6.8,21.9c7.2,8.2,19.6,20.2,26.7,27.1c2.4,2.4,5.1,2.2,7.6-0.1
		c3.8-3.5,20.8-20.4,26.2-26.5C70.6,56,74.5,48.3,74.5,37.3L74.5,37.3z M51.5,15.7c0.1,0,0.2-0.1,0.3-0.1s0.2,0,0.3,0.1
		c0.1,0,0.2,0.1,0.3,0.2l5.9,6c0.1,0.2,0.2,0.4,0.2,0.6s-0.1,0.4-0.2,0.6c0,0-15.2,15.2-16.9,16.8c-1.6,1.6-4.7,2.3-7.1-0.1
		c-2.4-2.4-1.5-5.4,0.1-6.9c1.6-1.6,16.9-16.9,16.9-16.9C51.3,15.8,51.4,15.8,51.5,15.7z M26.5,27.2c0.1-0.3,0.3-0.6,0.6-0.9
		L44.3,9.1c0.2-0.1,0.4-0.2,0.6-0.2c0.2,0,0.4,0.1,0.6,0.2l2.7,2.6c0.1,0.1,0.1,0.2,0.2,0.3c0,0.1,0.1,0.2,0.1,0.3
		c0,0.1,0,0.2-0.1,0.3c0,0.1-0.1,0.2-0.2,0.3L30.8,30.1c-0.5,0.5-1.2,0.8-1.8,0.8c-0.7,0-1.4-0.3-1.8-0.8c-0.3-0.2-0.4-0.5-0.6-0.9
		s-0.2-0.7-0.2-1C26.3,27.8,26.4,27.5,26.5,27.2z M41.6,50l-20,4.9c-1.3,0.3-2.5-0.9-2.2-2.2l4.9-20c0.1-0.5,0.7-0.7,1.1-0.3
		c0.9,0.8,2.1,1.3,3.3,1.5c0.1,0,0.2,0.1,0.2,0.1c0.1,0.1,0.1,0.2,0.1,0.3C29,41.7,33.3,45.1,40,45.1c0.1,0,0.2,0,0.3,0.1
		c0.1,0.1,0.1,0.2,0.1,0.3c0.1,1.5,0.8,2.6,1.6,3.4C42.3,49.3,42.1,49.9,41.6,50z M65.4,29.6c0,0.1-0.1,0.2-0.2,0.3L48,47.1
		c-0.5,0.5-1.2,0.8-1.8,0.8c-0.7,0-1.4-0.3-1.8-0.8c-0.2-0.2-0.4-0.5-0.6-0.9c-0.1-0.3-0.2-0.7-0.2-1c0-0.3,0.1-0.7,0.2-1
		c0.1-0.3,0.3-0.6,0.6-0.9l17.1-17.2c0.1-0.1,0.4-0.2,0.6-0.2c0.2,0,0.4,0.1,0.6,0.2l2.7,2.6c0.1,0.1,0.1,0.2,0.2,0.3
		c0,0.1,0.1,0.2,0.1,0.3C65.5,29.4,65.5,29.5,65.4,29.6z"/>
	<path class="st0" d="M94.2,36l3.3-28c0.1-0.7,0.7-1.3,1.5-1.3h3.4c0.7,0,1.2,0.4,1.4,1.1l6.7,22.3l6.6-22.3
		c0.2-0.6,0.8-1.1,1.4-1.1h3.4c0.8,0,1.4,0.6,1.5,1.3l3.3,28c0.1,0.7-0.4,1.3-1.1,1.3H122c-0.6,0-1-0.4-1.1-1l-2.5-21.5l0.9,0.1
		l-5.8,21.6c-0.1,0.5-0.6,0.8-1.1,0.8h-4c-0.5,0-1-0.3-1.1-0.8l-5.8-21.6l1,0l-2.4,21.4c-0.1,0.6-0.5,1-1.1,1l-3.6,0
		C94.7,37.3,94.1,36.7,94.2,36z"/>
	<path class="st0" d="M137.9,37.5c-0.8,0-1.5-0.1-2.3-0.2c-0.9-0.1-1.7-0.4-2.5-0.8c-0.8-0.5-1.5-1.2-1.9-2
		c-0.5-0.9-0.8-2.1-0.8-3.7v-17c0-1.2,0.2-2.3,0.6-3.4c0.4-0.8,0.9-1.6,1.7-2.1c0.7-0.5,1.4-0.9,2.3-1.1c0.8-0.2,1.6-0.3,2.4-0.3
		c2.1,0,3.9,0,5.5,0.1c1.6,0.1,3,0.1,4.3,0.2c1,0.1,1.9,0.1,2.7,0.2c0.4,0,0.7,0.4,0.7,0.8v3.6c0,0.5-0.4,0.8-0.8,0.8h-10.6
		c-0.7,0-1.4,0.2-2,0.6c-0.2,0.2-0.4,0.5-0.6,0.9c-0.1,0.3-0.2,0.7-0.1,1v4.4l11.3,0.3c0.4,0,0.8,0.4,0.8,0.8v3.2
		c0,0.4-0.4,0.8-0.8,0.8l-11.3,0.3V29c0,0.6,0.1,1.2,0.3,1.7c0.2,0.4,0.5,0.7,0.9,0.8c0.4,0.2,0.8,0.2,1.3,0.2h10.7
		c0.5,0,0.8,0.4,0.8,0.8v3.6c0,0.4-0.3,0.8-0.7,0.8c-1,0.1-2.1,0.2-3.3,0.3c-1.5,0.1-3,0.1-4.5,0.2
		C140.7,37.5,139.3,37.5,137.9,37.5z"/>
	<path class="st0" d="M162.4,37.3c-1.4,0-2.7-0.2-4-0.7c-1.1-0.5-1.9-1.3-2.4-2.3c-0.6-1.3-0.9-2.7-0.8-4.2V7.8c0-0.6,0.5-1,1-1h4.1
		c0.6,0,1,0.5,1,1v21.3c0,0.6,0.1,1.1,0.4,1.6c0.2,0.4,0.5,0.7,1,0.8c0.5,0.2,0.9,0.2,1.4,0.2h8.6c0.6,0,1,0.5,1,1v3.5
		c0,0.6-0.5,1-1,1L162.4,37.3z"/>
	<path class="st0" d="M177.2,36.5V7.6c0-0.4,0.4-0.8,0.8-0.8h4.5c0.4,0,0.8,0.4,0.8,0.8v11.9h11.5V7.6c0-0.4,0.4-0.8,0.8-0.8h4.5
		c0.4,0,0.8,0.4,0.8,0.8v28.9c0,0.4-0.4,0.8-0.8,0.8h-4.5c-0.4,0-0.8-0.4-0.8-0.8V25h-11.5v11.5c0,0.4-0.4,0.8-0.8,0.8H178
		C177.6,37.3,177.2,36.9,177.2,36.5z"/>
	<path class="st0" d="M218,37.5c-1.8,0-3.7-0.2-5.5-0.6c-1.5-0.4-2.9-1.1-3.9-2.2c-1.1-1.1-1.9-2.6-2.4-4.7c-0.5-2-0.8-4.7-0.8-8
		c0-3.3,0.3-5.9,0.8-8c0.5-2.1,1.3-3.6,2.4-4.7c1.1-1.1,2.4-1.9,3.9-2.3c3.6-0.8,7.4-0.8,11,0c1.5,0.4,2.9,1.2,3.9,2.3
		c1,1.1,1.8,2.7,2.4,4.7c0.5,2,0.8,4.7,0.8,8c0,3.3-0.3,5.9-0.8,8c-0.5,2-1.3,3.6-2.4,4.7c-1.1,1.1-2.4,1.9-3.9,2.2
		C221.7,37.4,219.8,37.6,218,37.5L218,37.5z M218,32.1c1,0,2.1-0.1,3.1-0.4c0.8-0.3,1.5-0.8,2-1.5c0.6-0.9,0.9-1.9,1.1-3
		c0.2-1.7,0.4-3.4,0.3-5.1c0-1.8-0.1-3.5-0.3-5.3c-0.1-1.1-0.5-2.1-1.1-3c-0.5-0.7-1.2-1.2-2-1.4c-1-0.3-2.1-0.4-3.1-0.4
		c-1,0-2,0.1-3,0.4c-0.8,0.2-1.5,0.7-2,1.4c-0.6,0.9-1,2-1.1,3c-0.3,1.7-0.4,3.5-0.4,5.3c0,1.7,0.1,3.4,0.3,5.1
		c0.1,1.1,0.5,2.1,1.1,3c0.5,0.7,1.2,1.2,2,1.5C215.9,31.9,217,32.1,218,32.1L218,32.1z"/>
	<path class="st0" d="M235.1,36.1V8.3c0-0.9,0.7-1.5,1.5-1.5h11.1c1.1,0,2.3,0.1,3.4,0.4c1,0.3,2,0.8,2.8,1.5c0.9,0.8,1.5,1.8,1.9,3
		c0.5,1.6,0.7,3.2,0.7,4.9c0,1.2-0.1,2.4-0.4,3.6c-0.2,0.9-0.6,1.7-1.1,2.4c-0.4,0.6-1.2,1.3-1.7,1.6c-0.5,0.3-1,0.6-1.6,0.8
		l4.9,10.6c0.4,0.8-0.2,1.7-1.1,1.7h-3.7c-0.5,0-0.9-0.3-1.1-0.7L246.1,26c-0.3,0-0.7,0-1.1,0c-0.4,0-0.9,0-1.3,0h-1.3
		c-0.4,0-0.8,0-1.2,0v10.2c0,0.6-0.5,1.2-1.2,1.2h-3.8C235.6,37.3,235.1,36.8,235.1,36.1z M241.2,21.1h5.4c0.4,0,0.8,0,1.2-0.1
		c0.4-0.1,1.1-0.4,1.4-0.8c0.4-0.4,0.6-0.9,0.8-1.4c0.2-0.7,0.3-1.5,0.3-2.2c0-0.7-0.1-1.4-0.3-2.1c-0.1-0.5-0.4-1-0.8-1.3
		c-0.3-0.3-0.9-0.6-1.4-0.7c-0.4-0.1-0.8-0.1-1.3-0.1h-5.4V21.1z"/>
	<path class="st0" d="M103.4,81.3c-0.9,0-1.7-0.1-2.6-0.2c-1-0.1-1.9-0.5-2.8-1c-0.9-0.5-1.7-1.3-2.2-2.3c-0.6-1-0.9-2.4-0.9-4.2
		V54.3c0-1.3,0.2-2.6,0.7-3.8c0.4-1,1.1-1.8,1.9-2.4c0.8-0.6,1.6-1,2.6-1.3c0.9-0.2,1.8-0.4,2.8-0.4c2.3,0,4.4,0,6.2,0.1
		c1.8,0.1,3.4,0.1,4.9,0.2c1.1,0.1,2.2,0.1,3.2,0.2c0.4,0,0.8,0.4,0.8,0.9v4.2c0,0.5-0.4,0.9-0.9,0.9h-12c-0.8-0.1-1.6,0.2-2.3,0.7
		c-0.5,0.5-0.8,1.2-0.8,2.2v5l12.9,0.3c0.5,0,0.8,0.4,0.8,0.9v3.8c0,0.5-0.4,0.9-0.8,0.9l-12.9,0.3v4.8c0,0.7,0.1,1.3,0.4,1.9
		c0.2,0.4,0.6,0.8,1.1,0.9c0.5,0.2,0.9,0.3,1.4,0.3H117c0.5,0,0.9,0.4,0.9,0.9v4.2c0,0.4-0.3,0.8-0.8,0.9c-1.2,0.1-2.4,0.2-3.8,0.3
		c-1.7,0.1-3.4,0.2-5.1,0.2C106.5,81.2,104.9,81.3,103.4,81.3z"/>
	<path class="st0" d="M133.3,81.3c-0.9,0-1.8,0-2.8-0.1c-1-0.1-1.9-0.1-2.9-0.2c-1-0.1-1.9-0.2-2.8-0.4c-0.5-0.1-1-0.2-1.4-0.3
		c-0.6-0.1-1-0.6-1-1.2V76c0-0.7,0.6-1.3,1.3-1.2c0.6,0,1.2,0.1,1.9,0.1c1.2,0.1,2.4,0.1,3.7,0.1c1.3,0,2.5,0,3.7,0
		c1,0,2.1-0.1,3.1-0.3c0.8-0.1,1.5-0.5,2-1.1c0.5-0.6,0.7-1.4,0.7-2.1v-1.3c0-0.4,0-0.9-0.2-1.3c-0.2-0.4-0.4-0.8-0.7-1.1
		c-0.7-0.6-1.7-0.9-2.6-0.8h-3c-3.3,0-5.8-0.7-7.6-2.2c-1.8-1.5-2.6-3.9-2.6-7.4v-1.7c0-3.4,1-5.8,2.9-7.4c1.9-1.6,4.7-2.3,8.3-2.3
		c1.3,0,2.6,0.1,3.8,0.2c1.3,0.1,2.5,0.3,3.7,0.4c0.7,0.1,1.4,0.2,2,0.3c0.6,0.1,1,0.6,1,1.2v3.2c0,0.7-0.6,1.3-1.3,1.2
		c-1.1-0.1-2.3-0.1-3.5-0.2c-1.8-0.1-3.4-0.1-4.9-0.1c-1,0-1.9,0.1-2.8,0.3c-0.7,0.2-1.4,0.6-1.9,1.1c-0.5,0.7-0.7,1.6-0.7,2.4v0.9
		c0,1.2,0.3,2.1,1,2.6c0.7,0.5,1.7,0.8,3,0.8h3.4c2.1,0,3.8,0.4,5.2,1.1c1.3,0.7,2.4,1.8,3,3.2c0.7,1.4,1,3,1,4.6v2
		c0,2.7-0.5,4.8-1.5,6.2c-1,1.4-2.5,2.4-4.2,2.9C137.6,81.1,135.5,81.3,133.3,81.3L133.3,81.3z"/>
	<path class="st0" d="M162.2,81.3c-1.8,0-3.6-0.2-5.4-0.7c-1.5-0.5-2.9-1.4-3.9-2.6c-1.1-1.2-1.9-3-2.4-5.4
		c-0.6-2.3-0.8-5.3-0.8-9.1c0-3.6,0.3-6.5,0.9-8.8c0.6-2.3,1.4-4.1,2.5-5.3c1.1-1.2,2.4-2.2,4-2.6c1.7-0.5,3.5-0.8,5.3-0.7
		c1.5,0,2.9,0.1,4.4,0.3c1.4,0.2,2.6,0.4,3.7,0.6c0.7,0.1,1.4,0.3,2.1,0.6c0.4,0.1,0.6,0.5,0.6,0.9v3.6c0,0.6-0.5,1-1.1,0.9
		c-0.4-0.1-0.8-0.1-1.2-0.2c-0.9-0.1-2-0.2-3.3-0.3c-1.2-0.1-2.5-0.1-3.8-0.1c-1.1,0-2.3,0.1-3.3,0.4c-0.9,0.3-1.7,0.9-2.2,1.6
		c-0.6,1.1-1.1,2.2-1.2,3.4c-0.3,1.9-0.4,3.9-0.4,5.9c0,1.9,0.1,3.8,0.4,5.7c0.1,1.2,0.5,2.4,1.1,3.5c0.5,0.8,1.3,1.4,2.2,1.7
		c1.1,0.4,2.3,0.5,3.5,0.5c2.4,0,4.3,0,5.8-0.1c1-0.1,1.9-0.1,2.6-0.2c0.5-0.1,1,0.4,1,0.9v3.6c0,0.4-0.3,0.8-0.7,0.9
		c-0.7,0.2-1.5,0.4-2.2,0.5c-1.2,0.2-2.4,0.4-3.6,0.5C165.3,81.2,163.8,81.3,162.2,81.3z"/>
	<path class="st0" d="M190.9,81.3c-2.1,0-4.2-0.2-6.2-0.7c-1.7-0.4-3.3-1.3-4.5-2.5c-1.2-1.2-2.1-3-2.7-5.3c-0.6-2.3-0.9-5.3-0.9-9
		c0-3.7,0.3-6.7,0.9-9.1c0.6-2.3,1.5-4.1,2.7-5.4c1.2-1.3,2.8-2.2,4.5-2.6c4.1-0.9,8.4-0.9,12.5,0c1.7,0.4,3.2,1.3,4.5,2.6
		c1.2,1.2,2.1,3,2.7,5.4c0.6,2.3,0.9,5.4,0.9,9.1c0,3.7-0.3,6.7-0.9,9c-0.6,2.3-1.5,4.1-2.7,5.3c-1.2,1.2-2.8,2.1-4.5,2.5
		C195.1,81.1,193,81.3,190.9,81.3L190.9,81.3z M190.9,75.1c1.2,0,2.4-0.1,3.5-0.5c0.9-0.3,1.7-0.9,2.2-1.7c0.6-1,1-2.2,1.2-3.4
		c0.3-1.9,0.4-3.9,0.4-5.8c0-2-0.1-4-0.4-6c-0.2-1.2-0.6-2.4-1.2-3.4c-0.5-0.8-1.3-1.3-2.2-1.6c-1.1-0.3-2.3-0.5-3.5-0.4
		c-1.2,0-2.3,0.1-3.4,0.4c-0.9,0.3-1.7,0.8-2.3,1.6c-0.7,1-1.1,2.2-1.3,3.4c-0.3,2-0.4,4-0.4,6c0,1.9,0.1,3.9,0.4,5.8
		c0.1,1.2,0.6,2.4,1.2,3.4c0.6,0.8,1.4,1.4,2.3,1.7C188.5,74.9,189.7,75.1,190.9,75.1L190.9,75.1z"/>
	<path class="st0" d="M218.5,81c-1.5,0-3.1-0.2-4.5-0.8c-1.2-0.5-2.2-1.4-2.8-2.6c-0.6-1.2-0.9-2.8-0.9-4.8V47.4
		c0-0.6,0.5-1.1,1.1-1.1h4.7c0.6,0,1.1,0.5,1.1,1.1v24.3c0,0.6,0.1,1.3,0.4,1.8c0.2,0.5,0.7,0.8,1.2,1c0.5,0.2,1,0.2,1.6,0.2h9.9
		c0.6,0,1.1,0.5,1.1,1.1v4.1c0,0.6-0.5,1.1-1.1,1.1L218.5,81z"/>
	<path class="st0" d="M233.6,79.5l10-31.9c0.2-0.8,1-1.3,1.8-1.3h6.1c0.8,0,1.5,0.5,1.8,1.3l10,31.9c0.2,0.8-0.3,1.5-1.1,1.5h-4.7
		c-0.5,0-1-0.3-1.1-0.8l-2-6.4h-11.8l-1.9,6.4c-0.1,0.5-0.6,0.8-1.1,0.8h-4.6C233.9,81,233.4,80.2,233.6,79.5z M244,67.5h8.5
		l-4.3-15.2L244,67.5z"/>
</g>
</svg>
